<svg xmlns="http://www.w3.org/2000/svg" width="377" height="245" viewBox="0 0 377 245" version="1.1">
	<path d="M 254.280 35.736 C 256.909 35.943, 260.959 35.940, 263.280 35.731 C 265.601 35.521, 263.450 35.352, 258.500 35.355 C 253.550 35.358, 251.651 35.530, 254.280 35.736 M 270.264 36.718 C 271.784 36.947, 274.034 36.941, 275.264 36.704 C 276.494 36.467, 275.250 36.279, 272.500 36.286 C 269.750 36.294, 268.744 36.488, 270.264 36.718 M 279.762 37.707 C 281.006 37.946, 282.806 37.937, 283.762 37.687 C 284.718 37.437, 283.700 37.241, 281.500 37.252 C 279.300 37.263, 278.518 37.468, 279.762 37.707 M 244.500 44 C 244.109 47.367, 244.002 50.335, 244.262 50.595 C 244.521 50.855, 245.047 48.305, 245.429 44.929 C 245.811 41.552, 245.918 38.584, 245.667 38.334 C 245.416 38.083, 244.891 40.633, 244.500 44 M 287.250 38.689 C 288.212 38.941, 289.788 38.941, 290.750 38.689 C 291.712 38.438, 290.925 38.232, 289 38.232 C 287.075 38.232, 286.288 38.438, 287.250 38.689 M 295.269 39.693 C 296.242 39.947, 297.592 39.930, 298.269 39.656 C 298.946 39.382, 298.150 39.175, 296.500 39.195 C 294.850 39.215, 294.296 39.439, 295.269 39.693 M 317.693 42.648 C 319.274 42.991, 319.997 44.015, 320.283 46.312 C 320.663 49.368, 320.675 49.356, 320.589 46 C 320.513 43.004, 320.140 42.476, 318 42.336 C 315.908 42.199, 315.858 42.250, 317.693 42.648 M 257.700 46.683 C 257.425 47.133, 256.885 50.032, 256.500 53.127 L 255.800 58.754 259.650 59.709 C 261.768 60.234, 263.398 61.158, 263.273 61.764 C 262.656 64.750, 262.046 71.375, 262.468 70.500 C 263.464 68.438, 267.618 47, 267.022 47 C 266.680 47, 265.842 49.700, 265.161 53 C 264.095 58.159, 263.612 58.998, 261.711 58.985 C 257.302 58.954, 256.599 57.685, 257.758 51.847 C 258.778 46.704, 258.759 44.955, 257.700 46.683 M 277.342 51.343 C 272.144 56.540, 271 58.811, 271 63.934 C 271 71.534, 277.066 74.340, 282.894 69.436 C 287.940 65.190, 290.001 52.121, 286.171 48.655 C 283.504 46.241, 281.981 46.705, 277.342 51.343 M 279.381 51.009 C 274.715 54.316, 272 59.185, 272 64.246 C 272 70.623, 277.969 73.122, 282.463 68.628 C 286.706 64.385, 288.528 52.671, 285.429 49.571 C 284.564 48.707, 283.777 48.020, 283.679 48.045 C 283.580 48.069, 281.646 49.403, 279.381 51.009 M 293.734 56.729 C 291.985 63.015, 292.638 65.048, 296.372 64.937 C 298.461 64.874, 298.459 64.857, 296.250 63.969 C 293.743 62.961, 293.510 61.305, 295.078 55.656 C 295.665 53.542, 295.962 51.629, 295.738 51.405 C 295.514 51.180, 294.612 53.576, 293.734 56.729 M 319.232 54 C 319.232 55.925, 319.438 56.712, 319.689 55.750 C 319.941 54.788, 319.941 53.212, 319.689 52.250 C 319.438 51.288, 319.232 52.075, 319.232 54 M 301.668 54.750 C 301.348 56.263, 300.211 61.438, 299.142 66.250 C 298.073 71.063, 297.603 75, 298.099 75 C 298.595 75, 299.009 73.987, 299.020 72.750 C 299.031 71.513, 300.109 66.338, 301.415 61.250 C 302.721 56.163, 303.444 52, 303.020 52 C 302.597 52, 301.988 53.237, 301.668 54.750 M 243.286 57.500 C 243.294 60.250, 243.488 61.256, 243.718 59.736 C 243.947 58.216, 243.941 55.966, 243.704 54.736 C 243.467 53.506, 243.279 54.750, 243.286 57.500 M 242.392 72.422 C 242.468 75.884, 242.945 77.464, 244 77.748 C 245.037 78.027, 245.135 77.892, 244.319 77.310 C 243.669 76.846, 242.946 74.450, 242.711 71.984 L 242.285 67.500 242.392 72.422 M 316.232 80 C 316.232 81.925, 316.438 82.713, 316.689 81.750 C 316.941 80.787, 316.941 79.213, 316.689 78.250 C 316.438 77.287, 316.232 78.075, 316.232 80 M 260.269 79.693 C 261.242 79.947, 262.592 79.930, 263.269 79.656 C 263.946 79.382, 263.150 79.175, 261.500 79.195 C 259.850 79.215, 259.296 79.439, 260.269 79.693 M 267.269 80.693 C 268.242 80.947, 269.592 80.930, 270.269 80.656 C 270.946 80.382, 270.150 80.175, 268.500 80.195 C 266.850 80.215, 266.296 80.439, 267.269 80.693 M 275.250 81.728 C 277.313 81.944, 279 82.599, 279 83.184 C 279 83.769, 277.442 98.479, 275.537 115.874 C 273.632 133.268, 271.945 149.300, 271.787 151.500 C 271.464 156.001, 271.310 156.042, 261.086 154.378 L 255.672 153.497 246.947 131.536 C 242.148 119.457, 237.805 108.915, 237.296 108.108 C 236.585 106.980, 233.978 109.931, 226.049 120.836 L 215.728 135.031 187.614 134.765 L 159.500 134.500 151.765 124 C 147.510 118.225, 142.723 111.925, 141.125 110 L 138.221 106.500 137.156 109 C 136.570 110.375, 134.027 116.900, 131.505 123.500 C 123.757 143.773, 119.690 153.189, 118.571 153.447 C 100.519 157.602, 90.833 161.031, 86.777 164.702 C 81.553 169.430, 87.157 176.241, 99.655 180.355 C 110.219 183.832, 114.917 184.796, 132.480 187.089 C 167.393 191.647, 208.076 191.625, 243.776 187.029 C 279.182 182.471, 296.960 173.973, 288.942 165.438 C 286.255 162.578, 276.718 157, 274.515 157 C 272.279 157, 272.530 151.846, 276.506 116.032 C 278.428 98.724, 280 84.176, 280 83.702 C 280 83.228, 283.038 83.080, 286.750 83.372 L 293.500 83.903 285.500 82.527 C 281.100 81.770, 276.150 81.192, 274.500 81.243 C 272.119 81.317, 272.274 81.417, 275.250 81.728 M 295.250 84.689 C 296.212 84.941, 297.788 84.941, 298.750 84.689 C 299.712 84.438, 298.925 84.232, 297 84.232 C 295.075 84.232, 294.288 84.438, 295.250 84.689 M 133.805 120.750 C 127.963 135.449, 114.906 168.869, 112.450 175.410 C 111.436 178.110, 110.439 179.816, 110.234 179.201 C 110.029 178.587, 111.914 173.036, 114.422 166.867 C 116.931 160.698, 118.809 155.475, 118.595 155.262 C 117.725 154.391, 105.005 157.364, 97.916 160.095 C 65.679 172.515, 101.734 186.183, 175.250 189.411 C 184.823 189.831, 187 189.671, 187 188.547 C 187 187.788, 185.762 186.244, 184.250 185.115 L 181.500 183.063 187.250 183.032 C 192.881 183.001, 194.879 184.269, 191.092 185.471 C 189.081 186.109, 187.595 188.632, 188.794 189.372 C 191.008 190.740, 247.028 186.479, 254.181 184.398 C 255.105 184.129, 256.174 182.485, 256.556 180.745 C 256.938 179.004, 258.042 175.735, 259.009 173.480 L 260.766 169.380 254.883 154.440 C 251.648 146.223, 247.810 136.575, 246.355 133 C 244.900 129.425, 242.512 123.350, 241.047 119.500 C 236.437 107.382, 237.568 107.176, 226.395 122.169 L 216.460 135.500 187.843 135.765 L 159.226 136.030 149.363 122.574 C 143.938 115.173, 139.269 109.091, 138.987 109.059 C 138.706 109.026, 136.374 114.287, 133.805 120.750 M 257.204 156.138 C 257.482 156.887, 258.510 159.937, 259.490 162.916 L 261.271 168.331 262.714 165.416 C 263.508 163.812, 265.501 161.318, 267.143 159.873 L 270.129 157.247 266.314 156.589 C 264.216 156.228, 261.195 155.671, 259.600 155.353 C 257.413 154.917, 256.824 155.110, 257.204 156.138 M 271.235 166.750 L 270.166 175.500 270.661 167.141 C 271.232 157.511, 270.495 157.049, 265.334 163.796 C 262.336 167.715, 259.116 175.024, 257.591 181.371 C 256.905 184.227, 256.919 184.238, 260.677 183.533 C 267.624 182.230, 279.752 178.004, 281.056 176.433 C 281.765 175.578, 282.547 172.451, 282.793 169.483 C 283.205 164.520, 282.996 163.842, 280.197 161.043 C 278.479 159.325, 276.098 158, 274.729 158 C 272.428 158, 272.249 158.449, 271.235 166.750 M 160.238 160.162 C 158.642 161.758, 158.649 164.656, 160.250 165.685 C 161.063 166.207, 160.277 166.705, 158 167.112 C 155.839 167.498, 157.752 167.726, 163 167.708 C 167.675 167.693, 170.051 167.499, 168.280 167.279 C 165.372 166.917, 165.177 166.689, 166.272 164.935 C 168.563 161.268, 163.297 157.103, 160.238 160.162 M 209 161 C 208.256 162.390, 208.246 163.591, 208.966 164.937 C 209.879 166.643, 209.616 166.921, 206.751 167.277 C 204.963 167.498, 207.325 167.685, 212 167.690 C 216.675 167.696, 219.285 167.515, 217.800 167.289 C 215.344 166.914, 215.198 166.659, 216.197 164.468 C 217.025 162.650, 216.983 161.684, 216.025 160.530 C 214.223 158.359, 210.272 158.623, 209 161 M 283.454 169.505 C 283.428 173.077, 283.681 176, 284.017 176 C 285.122 176, 290 170.416, 290 169.150 C 290 167.781, 285.558 162.997, 284.295 163.005 C 283.858 163.008, 283.479 165.933, 283.454 169.505" stroke="none" fill="#000000" fill-rule="evenodd"/>
</svg>